<?xml version="1.0" encoding="iso-8859-1"?>
<!-- Uploaded to: SVG Repo, www.svgrepo.com, Generator: SVG Repo Mixer Tools -->
<!DOCTYPE svg PUBLIC "-//W3C//DTD SVG 1.1//EN" "http://www.w3.org/Graphics/SVG/1.1/DTD/svg11.dtd">
<svg fill="#000000" height="800px" width="800px" version="1.1" id="Capa_1" xmlns="http://www.w3.org/2000/svg" xmlns:xlink="http://www.w3.org/1999/xlink" 
	 viewBox="0 0 294 294" xml:space="preserve">
<path d="M78.333,200.5c0,14.061-11.439,25.5-25.5,25.5s-25.5-11.439-25.5-25.5s11.439-25.5,25.5-25.5S78.333,186.439,78.333,200.5z
	 M173,225.5h-52v39h52V225.5z M173,160.5v-74h-52v74H173z M173,175.5h-52v35h52V175.5z M241.833,175
	c-14.061,0-25.5,11.439-25.5,25.5s11.439,25.5,25.5,25.5s25.5-11.439,25.5-25.5S255.894,175,241.833,175z M294,101.5v148
	c0,8.284-6.382,15-14.667,15H188v-178h49v-27c0-8.271-6.396-15-14.667-15h-153C61.062,44.5,54,51.229,54,59.5v27h52v178H15.333
	C7.049,264.5,0,257.784,0,249.5v-148c0-8.284,7.049-15,15.333-15H39v-27c0-16.542,13.791-30,30.333-30h153
	c16.542,0,29.667,13.458,29.667,30v27h27.333C287.618,86.5,294,93.216,294,101.5z M93.333,200.5c0-22.332-18.168-40.5-40.5-40.5
	s-40.5,18.168-40.5,40.5s18.168,40.5,40.5,40.5S93.333,222.832,93.333,200.5z M27.333,111.5c-4.143,0-7.5,3.357-7.5,7.5
	s3.357,7.5,7.5,7.5h50c4.143,0,7.5-3.357,7.5-7.5s-3.357-7.5-7.5-7.5H27.333z M209.833,119c0,4.143,3.357,7.5,7.5,7.5h50
	c4.143,0,7.5-3.357,7.5-7.5s-3.357-7.5-7.5-7.5h-50C213.19,111.5,209.833,114.857,209.833,119z M282.333,200.5
	c0-22.332-18.168-40.5-40.5-40.5s-40.5,18.168-40.5,40.5s18.168,40.5,40.5,40.5S282.333,222.832,282.333,200.5z"/>
</svg>